<svg xmlns="http://www.w3.org/2000/svg" viewBox="0 0 28 28"><path fill="#50b748" fill-rule="evenodd" d="M28 13.987C28 21.728 21.728 28 13.987 28 6.272 28 0 21.728 0 13.987 0 6.272 6.272 0 13.987 0 21.728 0 28 6.272 28 13.987z" clip-rule="evenodd"/><path fill="#fff" d="m14 21.102-4.161-4.161.707-.707L14 19.688l3.454-3.454.707.707z"/><path fill="#fff" d="m18.161 16.941-.707-.707a4.891 4.891 0 0 0 0-6.908 4.891 4.891 0 0 0-6.908 0 4.891 4.891 0 0 0 0 6.908l-.707.707a5.892 5.892 0 0 1 0-8.322 5.89 5.89 0 0 1 8.322 0 5.89 5.89 0 0 1 0 8.322z"/><path fill="#fff" d="M14 16.895c-2.206 0-4-1.794-4-4s1.794-4 4-4 4 1.794 4 4-1.794 4-4 4zm0-7c-1.654 0-3 1.346-3 3s1.346 3 3 3 3-1.346 3-3-1.346-3-3-3z"/><path fill="#fff" d="M14 13.895c-.827 0-1.5-.673-1.5-1.5s.673-1.5 1.5-1.5 1.5.673 1.5 1.5-.673 1.5-1.5 1.5zm0-2a.5.5 0 1 0 0 1 .5.5 0 0 0 0-1z"/><path fill="#fff" d="M14 16.895a3.98 3.98 0 0 1-2.24-.686l-.169-.114-.041-.2a2.503 2.503 0 0 1 2.449-3 2.503 2.503 0 0 1 2.449 3l-.041.2-.169.114a3.97 3.97 0 0 1-2.238.686zm-1.497-1.4a3.046 3.046 0 0 0 2.993 0 1.502 1.502 0 0 0-1.497-1.6 1.502 1.502 0 0 0-1.496 1.6z"/></svg>