<svg xmlns="http://www.w3.org/2000/svg" viewBox="0 0 16 16"><linearGradient id="a" x1="1.25" x2="11.438" y1="8.105" y2="8.105" gradientUnits="userSpaceOnUse"><stop offset="0" stop-color="#2B2F82"/><stop offset="1" stop-color="#BF509D"/></linearGradient><path fill="url(#a)" d="M12.161 2.724a5.89 5.89 0 0 0-8.322 0 5.892 5.892 0 0 0 0 8.322L8 15.207l4.161-4.161a5.89 5.89 0 0 0 0-8.322zm-.707 7.615L8 13.793l-3.454-3.454a4.891 4.891 0 0 1 0-6.908 4.891 4.891 0 0 1 6.908 0 4.891 4.891 0 0 1 0 6.908z"/><linearGradient id="b" x1="1.25" x2="11.438" y1="7" y2="7" gradientUnits="userSpaceOnUse"><stop offset="0" stop-color="#2B2F82"/><stop offset="1" stop-color="#BF509D"/></linearGradient><path fill="url(#b)" d="M8 3C5.794 3 4 4.794 4 7c0 1.294.628 2.435 1.585 3.167l.006.033.169.114c.198.134.408.242.623.338.059.026.121.047.181.071.167.064.336.117.51.159.067.016.133.033.202.046.238.042.479.072.724.072s.486-.03.724-.073c.069-.013.135-.03.202-.046a3.81 3.81 0 0 0 .51-.159c.061-.023.122-.044.181-.071.215-.095.425-.204.623-.338l.169-.114.007-.033A3.98 3.98 0 0 0 12 7c0-2.206-1.794-4-4-4zM6.5 9.5C6.5 8.673 7.173 8 8 8a1.502 1.502 0 0 1 1.497 1.584 2.937 2.937 0 0 1-.632.274c-.047.014-.092.032-.14.044a3.09 3.09 0 0 1-1.45 0c-.048-.012-.093-.029-.14-.044a2.937 2.937 0 0 1-.632-.274A1.179 1.179 0 0 1 6.5 9.5zm1-3a.5.5 0 1 1 1 0 .5.5 0 0 1-1 0zm2.887 2.297A2.494 2.494 0 0 0 9.24 7.342 1.502 1.502 0 0 0 8 5a1.502 1.502 0 0 0-1.24 2.342c-.55.318-.964.834-1.147 1.455A2.971 2.971 0 0 1 5 7c0-1.654 1.346-3 3-3s3 1.346 3 3c0 .677-.234 1.295-.613 1.797z"/></svg>