<svg xmlns="http://www.w3.org/2000/svg" viewBox="0 0 512 512"><ellipse cx="256.003" cy="439.505" fill="#a2e19f" fill-rule="evenodd" clip-rule="evenodd" rx="219.434" ry="64.5"/><ellipse cx="256.002" cy="445.88" fill="#97cf92" fill-rule="evenodd" clip-rule="evenodd" rx="92.123" ry="23.106"/><path fill="#ffe07d" fill-rule="evenodd" d="M256.003 8.005c91.554 0 165.772 74.219 165.772 165.772 0 103.273-85.902 217.16-161.26 278.666-2.603 2.123-6.246 2.124-8.849.001C176.068 390.778 90.23 277.605 90.23 173.778c0-91.554 74.219-165.773 165.773-165.773z" clip-rule="evenodd"/><path fill="#f0d47b" fill-rule="evenodd" d="M246.003 8.302c86.897 5.17 155.772 77.279 155.772 165.475 0 69.435-38.831 143.667-87.181 203.551-21.796 26.996-45.527 51.076-68.506 70.487a438.805 438.805 0 0 0 5.579 4.629c2.603 2.122 6.247 2.122 8.849-.001 22.96-18.74 46.899-42.342 69.089-69.026a539.202 539.202 0 0 0 3.55-4.314c49.016-60.189 88.62-135.204 88.62-205.326 0-91.554-74.219-165.772-165.772-165.772-3.358 0-6.692.1-10 .297z" clip-rule="evenodd"/><g fill-rule="evenodd" clip-rule="evenodd"><circle cx="256.002" cy="173.778" r="119.354" fill="#4a80aa"/><path fill="#407093" d="M246.002 54.837c61.238 5.08 109.353 56.391 109.353 118.941s-48.115 113.861-109.353 118.94c3.297.274 6.633.413 10 .413 65.917 0 119.354-53.436 119.354-119.354 0-65.917-53.436-119.354-119.354-119.354-3.367.001-6.703.141-10 .414z"/><path fill="#9dc6fb" d="M256.003 164.127c31.852 0 58.138 23.827 62.009 54.627.26 2.065-.319 3.943-1.696 5.504-1.377 1.561-3.169 2.369-5.25 2.369H200.939c-2.081 0-3.873-.808-5.249-2.369-1.377-1.561-1.956-3.439-1.697-5.504 3.872-30.8 30.158-54.627 62.01-54.627z"/><path fill="#80b4fb" d="M318.012 218.754c-3.871-30.8-30.158-54.627-62.009-54.627-2.035 0-4.047.097-6.032.287 29.087 2.785 52.354 25.507 55.977 54.339.26 2.065-.319 3.943-1.696 5.504-1.376 1.561-3.169 2.369-5.25 2.369h12.063c2.081 0 3.873-.808 5.25-2.369 1.377-1.56 1.956-3.438 1.697-5.503z"/><circle cx="256.003" cy="132.527" r="31.6" fill="#ffece4"/><path fill="#ffcbbe" d="M256.003 164.127c17.452 0 31.6-14.148 31.6-31.6s-14.148-31.6-31.6-31.6c-2.063 0-4.079.198-6.032.575 14.567 2.816 25.568 15.636 25.568 31.025s-11.001 28.209-25.568 31.025c1.953.378 3.969.575 6.032.575z"/></g><path fill-rule="evenodd" d="M202.086 218.627c3.868-26.274 26.604-46.501 53.917-46.501s50.048 20.227 53.917 46.501H202.086zm53.917-109.696c13.019 0 23.586 10.585 23.586 23.595 0 13.014-10.566 23.604-23.586 23.604-13.019 0-23.586-10.59-23.586-23.604 0-13.01 10.566-23.595 23.586-23.595zm70.52 117.696c0-29.326-18.02-54.52-43.586-65.129 7.783-7.236 12.642-17.543 12.642-28.972 0-21.831-17.736-39.6-39.577-39.6s-39.624 17.769-39.624 39.6c0 11.43 4.906 21.736 12.642 28.967-25.52 10.614-43.539 35.808-43.539 65.134 0 4.42 3.585 8 8.019 8h125.003c4.435 0 8.02-3.58 8.02-8zm-181.891-52.851c0 61.403 49.954 111.357 111.371 111.357 61.417 0 111.371-49.954 111.371-111.357 0-61.398-49.954-111.352-111.371-111.352-61.417 0-111.371 49.955-111.371 111.352zm238.733 0c0-70.219-57.124-127.352-127.362-127.352s-127.362 57.134-127.362 127.352c0 70.224 57.124 127.353 127.362 127.353S383.365 244 383.365 173.776zm25.566 303.664c-40.756 11.967-95.05 18.567-152.929 18.567-57.879 0-112.173-6.599-152.928-18.567-43.114-12.679-58.492-27.911-58.492-37.93 0-9.623 12.736-20.463 35.048-29.741 23.963-10 57.03-17.661 95.757-22.218 23.916 28.836 50.143 54.417 75.709 74.719 1.462 1.16 3.255 1.741 5 1.741s3.491-.58 4.953-1.741c26.274-20.831 52.313-46.709 75.474-74.719 38.775 4.547 71.842 12.208 95.852 22.218 22.265 9.278 35.048 20.118 35.048 29.741 0 10.019-15.377 25.251-58.492 37.93zM256.003 16.003c-86.983 0-157.787 70.78-157.787 157.773 0 98.72 80.898 208.982 157.882 271.951C335.25 380.891 413.79 268.251 413.79 173.776c0-86.992-70.804-157.773-157.787-157.773zm92.219 356.906c9.34-12.099 18.114-24.482 26.085-36.94 36.275-56.714 55.473-112.8 55.473-162.193C429.78 77.957 351.806.003 256.002.003S82.224 77.958 82.224 173.776c0 67.205 35.095 139.075 81.464 199.133C95.951 382.108 28.59 403.788 28.59 439.51c0 21.387 24.199 39.817 70.002 53.28 42.171 12.387 98.068 19.217 157.41 19.217 59.341 0 115.239-6.83 157.41-19.217 45.803-13.463 70.002-31.892 70.002-53.28 0-35.732-67.407-57.412-135.192-66.601z" clip-rule="evenodd"/></svg>