<?xml version="1.0" encoding="utf-8"?>
<!-- Generator: Adobe Illustrator 19.1.0, SVG Export Plug-In . SVG Version: 6.00 Build 0)  -->
<svg version="1.1" id="Calque_1" xmlns="http://www.w3.org/2000/svg" xmlns:xlink="http://www.w3.org/1999/xlink" x="0px" y="0px"
	 viewBox="0 0 34.085 41.95" enable-background="new 0 0 34.085 41.95" xml:space="preserve">
<g id="bus">
	<ellipse fill="#0D343F" cx="17.042" cy="39.93" rx="4.841" ry="2.021"/>
	<path fill="#83D34F" d="M34.085,17.042C34.085,7.63,26.455,0,17.042,0S0,7.63,0,17.042c0,7.318,4.621,13.54,11.098,15.955
		l5.945,5.945l5.945-5.945C29.463,30.583,34.085,24.36,34.085,17.042z"/>
	<g>
		<path fill="#FFFFFF" d="M23.317,11.501c-0.187-0.942-0.788-1.317-1.692-1.692c-0.884-0.371-3.01-0.812-4.583-0.826
			c-1.575,0.013-3.701,0.455-4.592,0.826c-0.898,0.375-1.499,0.75-1.683,1.692L10.091,16.7v7.172h1.165v1.118
			c-0.005,1.375,2.001,1.375,2.002,0v-1.118h3.704h0.009h3.854v1.118c-0.002,1.375,2.004,1.375,2.002,0v-1.118h1.165V16.7
			L23.317,11.501z M14.18,10.298h2.792h2.933c0.56-0.002,0.56,0.843,0,0.846h-2.942H14.18C13.617,11.141,13.617,10.297,14.18,10.298
			z M12.253,21.625c-0.528-0.003-0.959-0.433-0.959-0.968c-0.001-0.528,0.43-0.959,0.959-0.959c0.534,0,0.965,0.431,0.968,0.959
			C13.218,21.192,12.787,21.623,12.253,21.625z M16.972,17.245h-5.104c-0.498,0.005-0.603-0.355-0.554-0.714l0.526-3.779
			c0.072-0.455,0.228-0.757,0.827-0.761h4.296h4.456c0.596,0.004,0.752,0.306,0.827,0.761l0.527,3.779
			c0.045,0.36-0.059,0.719-0.555,0.714H16.972z M21.822,21.625c-0.528-0.003-0.959-0.433-0.959-0.968
			c0-0.528,0.431-0.959,0.959-0.959c0.535,0,0.966,0.431,0.968,0.959C22.788,21.192,22.357,21.623,21.822,21.625z"/>
		<path fill="#FFFFFF" d="M16.972,8.982c0.023,0,0.047,0.001,0.071,0.001c0.023,0,0.047-0.001,0.071-0.001H16.972z"/>
	</g>
</g>
</svg>
